<svg xmlns="http://www.w3.org/2000/svg" width="536" height="307.974" viewBox="0 0 536 307.974">
  <g id="undraw_progressive_app_m-9-ms" transform="translate(0 0)">
    <circle id="Ellipse_16" data-name="Ellipse 16" cx="27.875" cy="27.875" r="27.875" transform="translate(88.261 217.624)" fill="#f2f2f2"/>
    <circle id="Ellipse_17" data-name="Ellipse 17" cx="27.875" cy="27.875" r="27.875" transform="translate(92.794 213.545)" fill="#1396ee"/>
    <rect id="Rectangle_26" data-name="Rectangle 26" width="344.889" height="0.941" transform="translate(143.118 210.577)" fill="#3f3d56"/>
    <path id="Path_18" data-name="Path 18" d="M366.347,138.542H243.933v-2.523H188.426v2.523H65.507a8.28,8.28,0,0,0-8.28,8.28V314.445a8.28,8.28,0,0,0,8.28,8.28H366.347a8.28,8.28,0,0,0,8.28-8.28V146.822a8.28,8.28,0,0,0-8.28-8.28Z" transform="translate(-44.611 -129.766)" fill="#3f3d56"/>
    <rect id="Rectangle_27" data-name="Rectangle 27" width="295.198" height="166.522" transform="translate(23.717 23.41)" fill="#1396ee"/>
    <circle id="Ellipse_18" data-name="Ellipse 18" cx="3.028" cy="3.028" r="3.028" transform="translate(168.036 12.813)" fill="#1396ee"/>
    <path id="Path_19" data-name="Path 19" d="M261.183,216.276H50.406V49.754Z" transform="translate(-26.689 -26.344)" opacity="0.1"/>
    <circle id="Ellipse_19" data-name="Ellipse 19" cx="28.375" cy="28.375" r="28.375" transform="translate(41.531 120.72)" fill="#f2f2f2"/>
    <rect id="Rectangle_28" data-name="Rectangle 28" width="27.575" height="5.762" transform="translate(239.942 113.217)" fill="#3f3d56"/>
    <rect id="Rectangle_29" data-name="Rectangle 29" width="94.248" height="2.469" transform="translate(206.605 68.356)" fill="#3f3d56"/>
    <rect id="Rectangle_30" data-name="Rectangle 30" width="94.248" height="2.469" transform="translate(206.605 76.176)" fill="#3f3d56"/>
    <rect id="Rectangle_31" data-name="Rectangle 31" width="94.248" height="2.469" transform="translate(206.605 83.996)" fill="#3f3d56"/>
    <rect id="Rectangle_32" data-name="Rectangle 32" width="94.248" height="2.469" transform="translate(206.605 91.815)" fill="#3f3d56"/>
    <rect id="Rectangle_33" data-name="Rectangle 33" width="94.248" height="2.469" transform="translate(206.605 99.635)" fill="#3f3d56"/>
    <rect id="Rectangle_34" data-name="Rectangle 34" width="11.524" height="11.524" transform="translate(289.329 26.788)" fill="#f2f2f2"/>
    <path id="Path_20" data-name="Path 20" d="M665.448,199.778H651.455V185.785h13.993Zm-13.385-.608H664.84V186.393H652.063Z" transform="translate(-359.245 -156.116)" fill="#3f3d56"/>
    <path id="Path_21" data-name="Path 21" d="M368.72,517.161H339.91v-2.076a.412.412,0,0,0-.412-.412h-9.878a.412.412,0,0,0-.412.412v2.076h-6.174v-2.076a.411.411,0,0,0-.412-.412h-9.877a.412.412,0,0,0-.412.412v2.076h-6.173v-2.076a.412.412,0,0,0-.412-.412h-9.878a.412.412,0,0,0-.412.412v2.076h-6.173v-2.076a.412.412,0,0,0-.412-.412H279a.412.412,0,0,0-.412.412v2.076h-6.173v-2.076a.412.412,0,0,0-.412-.412h-9.878a.412.412,0,0,0-.412.411v2.076H255.54v-2.076a.412.412,0,0,0-.412-.412h-9.878a.412.412,0,0,0-.412.412v2.076h-6.174v-2.076a.412.412,0,0,0-.412-.412H160.88a.412.412,0,0,0-.412.412v2.076H154.3v-2.076a.412.412,0,0,0-.412-.412h-9.878a.412.412,0,0,0-.412.411v2.076h-6.173v-2.076a.412.412,0,0,0-.412-.412h-9.878a.412.412,0,0,0-.412.412v2.076h-6.174v-2.076a.412.412,0,0,0-.412-.412h-9.878a.412.412,0,0,0-.412.412v2.076h-6.173v-2.076a.412.412,0,0,0-.412-.412H93.384a.412.412,0,0,0-.412.412v2.076H86.8v-2.076a.412.412,0,0,0-.412-.412H76.509a.412.412,0,0,0-.412.412v2.076H69.925v-2.076a.412.412,0,0,0-.412-.412H59.636a.412.412,0,0,0-.412.412v2.076H40.292a9.877,9.877,0,0,0-9.878,9.878V531.5a9.877,9.877,0,0,0,9.877,9.877H368.72A9.878,9.878,0,0,0,378.6,531.5v-4.466a9.878,9.878,0,0,0-9.877-9.878Z" transform="translate(-30.415 -330.257)" fill="#3f3d56"/>
    <path id="Path_22" data-name="Path 22" d="M153.345,396.791A35.759,35.759,0,1,1,189.1,361.031,35.759,35.759,0,0,1,153.345,396.791Zm0-70.578a34.818,34.818,0,1,0,34.818,34.818A34.818,34.818,0,0,0,153.345,326.213Z" transform="translate(-76.57 -229.972)" fill="#3f3d56"/>
    <rect id="Rectangle_35" data-name="Rectangle 35" width="119.982" height="0.941" transform="translate(275.804 15.312)" fill="#3f3d56"/>
    <rect id="Rectangle_36" data-name="Rectangle 36" width="344.889" height="0.941" transform="translate(191.111 263.745)" fill="#3f3d56"/>
    <rect id="Rectangle_37" data-name="Rectangle 37" width="119.982" height="0.941" transform="translate(90.656 307.033)" fill="#3f3d56"/>
    <rect id="Rectangle_38" data-name="Rectangle 38" width="13.307" height="13.307" transform="translate(221.67 258.778)" fill="#1396ee"/>
    <path id="Path_23" data-name="Path 23" d="M528.413,666.726h-16v-16h16Zm-15.3-.7h14.606V651.424H513.11Z" transform="translate(-285.625 -402.295)" fill="#3f3d56"/>
    <rect id="Rectangle_39" data-name="Rectangle 39" width="13.307" height="13.307" transform="translate(374.706 10.372)" fill="#1396ee"/>
    <path id="Path_24" data-name="Path 24" d="M853.412,138.726h-16v-16h16Zm-15.3-.7h14.606V123.424H838.11Z" transform="translate(-457.707 -122.728)" fill="#3f3d56"/>
    <rect id="Rectangle_40" data-name="Rectangle 40" width="13.307" height="13.307" transform="translate(507.041 258.778)" fill="#1396ee"/>
    <path id="Path_25" data-name="Path 25" d="M1135.408,666.726h-16v-16h16Zm-15.3-.7h14.606V651.424h-14.606Z" transform="translate(-607.019 -402.295)" fill="#3f3d56"/>
    <path id="Path_26" data-name="Path 26" d="M973.294,300.216h-1.119v-30.66a17.745,17.745,0,0,0-17.745-17.745H889.471a17.745,17.745,0,0,0-17.745,17.745v168.2A17.745,17.745,0,0,0,889.471,455.5h64.956a17.745,17.745,0,0,0,17.745-17.745V322.04h1.119Z" transform="translate(-475.874 -191.076)" fill="#3f3d56"/>
    <path id="Path_27" data-name="Path 27" d="M973.908,276.832V444.788a13.253,13.253,0,0,1-13.252,13.254h-65.27a13.252,13.252,0,0,1-13.25-13.252V276.832a13.251,13.251,0,0,1,13.248-13.25h7.92a6.3,6.3,0,0,0,5.83,8.672h37.213a6.3,6.3,0,0,0,5.83-8.672h8.479a13.251,13.251,0,0,1,13.252,13.25Z" transform="translate(-481.386 -197.308)" fill="#1396ee"/>
    <rect id="Rectangle_41" data-name="Rectangle 41" width="19.443" height="5.762" transform="translate(436.913 177.017)" fill="#3f3d56"/>
    <rect id="Rectangle_42" data-name="Rectangle 42" width="66.456" height="2.469" transform="translate(413.407 132.156)" fill="#3f3d56"/>
    <rect id="Rectangle_43" data-name="Rectangle 43" width="66.456" height="2.469" transform="translate(413.407 139.976)" fill="#3f3d56"/>
    <rect id="Rectangle_44" data-name="Rectangle 44" width="66.456" height="2.469" transform="translate(413.407 147.796)" fill="#3f3d56"/>
    <rect id="Rectangle_45" data-name="Rectangle 45" width="66.456" height="2.469" transform="translate(413.407 155.615)" fill="#3f3d56"/>
    <rect id="Rectangle_46" data-name="Rectangle 46" width="66.456" height="2.469" transform="translate(413.407 163.435)" fill="#3f3d56"/>
    <rect id="Rectangle_47" data-name="Rectangle 47" width="11.524" height="11.524" transform="translate(437.433 99.363)" fill="#f2f2f2"/>
    <path id="Path_28" data-name="Path 28" d="M969.474,340.032v13.993h13.993V340.032Zm13.386,13.386H970.081V340.639H982.86Z" transform="translate(-527.63 -237.787)" fill="#3f3d56"/>
    <path id="Path_29" data-name="Path 29" d="M973.908,528.994V546.93a13.253,13.253,0,0,1-13.252,13.254h-65.27a13.251,13.251,0,0,1-13.25-13.252V456.492l54.989,43.443.941.743,10.229,8.079.955.758Z" transform="translate(-481.386 -299.451)" opacity="0.1"/>
    <circle id="Ellipse_20" data-name="Ellipse 20" cx="20.641" cy="20.641" r="20.641" transform="translate(420.348 214.01)" fill="#f2f2f2"/>
    <path id="Path_30" data-name="Path 30" d="M304.521,685.142a40.935,40.935,0,1,1,40.935-40.935A40.935,40.935,0,0,1,304.521,685.142Zm0-80.929a39.994,39.994,0,1,0,39.994,39.994,39.994,39.994,0,0,0-39.994-39.994Z" transform="translate(-153.875 -377.168)" fill="#3f3d56"/>
    <path id="Path_31" data-name="Path 31" d="M951.464,597.029a25.878,25.878,0,1,1,25.878-25.878A25.879,25.879,0,0,1,951.464,597.029Zm0-50.816A24.937,24.937,0,1,0,976.4,571.15,24.938,24.938,0,0,0,951.464,546.213Z" transform="translate(-504.392 -346.458)" fill="#3f3d56"/>
  </g>
</svg>
