<svg id="facebook-white" xmlns="http://www.w3.org/2000/svg" width="12.336" height="22.817" viewBox="0 0 12.336 22.817">
  <path id="Path_1" data-name="Path 1" d="M33.949,0,30.99,0c-3.324,0-5.472,2.2-5.472,5.615V8.2H22.542a.465.465,0,0,0-.465.465v3.751a.465.465,0,0,0,.465.465h2.975v9.466a.465.465,0,0,0,.465.465h3.882a.465.465,0,0,0,.465-.465V12.886h3.478a.465.465,0,0,0,.465-.465V8.67a.466.466,0,0,0-.465-.465h-3.48V6.01c0-1.055.251-1.59,1.626-1.59h1.993a.465.465,0,0,0,.465-.465V.47A.465.465,0,0,0,33.949,0Z" transform="translate(-22.077)" fill="#fff"/>
</svg>
