<svg id="instagram-white" xmlns="http://www.w3.org/2000/svg" width="22.817" height="22.817" viewBox="0 0 22.817 22.817">
  <path id="Path_2" data-name="Path 2" d="M16.52,0H6.3A6.3,6.3,0,0,0,0,6.3V16.52a6.3,6.3,0,0,0,6.3,6.3H16.52a6.3,6.3,0,0,0,6.3-6.3V6.3A6.3,6.3,0,0,0,16.52,0Zm4.273,16.52a4.277,4.277,0,0,1-4.272,4.272H6.3A4.277,4.277,0,0,1,2.024,16.52V6.3A4.277,4.277,0,0,1,6.3,2.024H16.52A4.277,4.277,0,0,1,20.793,6.3V16.52Z" fill="#fff"/>
  <path id="Path_3" data-name="Path 3" d="M46.847,40.97a5.879,5.879,0,1,0,5.879,5.879A5.886,5.886,0,0,0,46.847,40.97Zm0,9.734A3.855,3.855,0,1,1,50.7,46.849,3.859,3.859,0,0,1,46.847,50.7Z" transform="translate(-35.439 -35.441)" fill="#fff"/>
  <path id="Path_4" data-name="Path 4" d="M120.406,28.251a1.484,1.484,0,1,0,1.05.435A1.49,1.49,0,0,0,120.406,28.251Z" transform="translate(-102.871 -24.438)" fill="#fff"/>
</svg>
