<svg xmlns="http://www.w3.org/2000/svg" width="408.5" height="310.798" viewBox="0 0 408.5 310.798">
  <g id="undraw_order_confirmed_re_g0if" transform="translate(0)">
    <path id="Path_32" data-name="Path 32" d="M383.522,203.952h-1.49V163.128A23.628,23.628,0,0,0,358.4,139.5H271.912a23.628,23.628,0,0,0-23.628,23.628V387.094a23.628,23.628,0,0,0,23.628,23.628H358.4a23.628,23.628,0,0,0,23.628-23.628V233.012h1.49Z" transform="translate(-220.061 -139.5)" fill="#3f3d56"/>
    <path id="Path_33" data-name="Path 33" d="M365.864,151.783h-11.29a8.383,8.383,0,0,1-7.762,11.549h-49.55a8.383,8.383,0,0,1-7.762-11.549H278.956a17.645,17.645,0,0,0-17.645,17.645V393.065a17.645,17.645,0,0,0,17.645,17.645h86.908a17.645,17.645,0,0,0,17.645-17.645h0V169.428a17.645,17.645,0,0,0-17.645-17.645Z" transform="translate(-226.568 -145.635)" fill="#fff"/>
    <path id="Path_34" data-name="Path 34" d="M383.076,680.5H192.392a.5.5,0,0,1,0-1H383.076a.5.5,0,0,1,0,1Z" transform="translate(-191.892 -409.241)" fill="#cbcbcb"/>
    <circle id="Ellipse_44" data-name="Ellipse 44" cx="42.264" cy="42.264" r="42.264" transform="translate(53.578 88.479)" fill="#1396ee"/>
    <path id="Path_35" data-name="Path 35" d="M883.977,637.377a13.138,13.138,0,0,1,1.8-2.3c.283-.293.581-.569.888-.838a14.084,14.084,0,0,1,23.223,8.011c2.064-7.633-3.309-15.152-8.711-20.928S889.6,609.216,889.629,601.3a15.24,15.24,0,0,1,5.42-11.241c.1-.088.2-.176.3-.261a20.555,20.555,0,0,1,14.158-4.934c9.609.515,18,6.973,23.825,14.633,9.378,12.325,13.488,29.627,6.922,43.657-5.775,12.34-18.092,19.668-30.662,25.559q-2.633,1.234-5.255,2.394c-.011,0-.024.011-.036.014-.084.037-.168.074-.247.112l-1.079.476.166.108.517.335-.536-.322c-.053-.033-.11-.064-.163-.1-6.174-3.7-12.434-7.623-16.7-13.407C881.84,652.326,880.061,643.725,883.977,637.377Z" transform="translate(-536.521 -361.963)" fill="#389c92"/>
    <path id="Path_36" data-name="Path 36" d="M929.129,628.357a34.944,34.944,0,0,1,2.69,9.774,30.34,30.34,0,0,1-.366,9.015,38.874,38.874,0,0,1-7.8,16.677,55.95,55.95,0,0,1-10.1,9.819q-2.633,1.234-5.255,2.394c-.011,0-.024.011-.036.014-.084.037-.168.074-.247.112l-1.079.476.166.108.517.335-.536-.322c-.053-.033-.11-.064-.163-.1A30.654,30.654,0,0,0,889.743,640c.282-.293.58-.569.888-.838a32.356,32.356,0,0,1,4.957,2.83,31.689,31.689,0,0,1,11.991,15.885,32.4,32.4,0,0,1,.7,18.112c.31-.2.621-.411.923-.617a56.807,56.807,0,0,0,15.045-14.249,36.164,36.164,0,0,0,6.417-16.308,32.686,32.686,0,0,0-3.709-18.47A75.7,75.7,0,0,0,915.1,609.5a86.015,86.015,0,0,0-15.9-13.674.618.618,0,0,1-.183-.833.526.526,0,0,1,.3-.261.458.458,0,0,1,.39.079c.721.481,1.435.966,2.141,1.466a87,87,0,0,1,15.9,14.522A70.041,70.041,0,0,1,929.129,628.357Z" transform="translate(-540.483 -366.888)" fill="#fff"/>
    <circle id="Ellipse_44-2" data-name="Ellipse 44" cx="8.976" cy="8.976" r="8.976" transform="translate(253.797 1.673)" fill="#f1f1f1"/>
    <circle id="Ellipse_44-3" data-name="Ellipse 44" cx="5.472" cy="5.472" r="5.472" transform="translate(368.908 128.795)" fill="#f1f1f1"/>
    <circle id="Ellipse_44-4" data-name="Ellipse 44" cx="5.472" cy="5.472" r="5.472" transform="translate(208.754 143.809)" fill="#f1f1f1"/>
    <path id="Path_37" data-name="Path 37" d="M625.608,759.5H816.291a.5.5,0,0,0,0-1H625.608a.5.5,0,0,0,0,1Z" transform="translate(-408.292 -448.703)" fill="#cbcbcb"/>
    <path id="Path_38" data-name="Path 38" d="M935.564,227.794a7.333,7.333,0,0,0-14.082-3.717l-15.473,17.739,4.54,12.681,15.561-20.728a7.294,7.294,0,0,0,9.454-5.976Z" transform="translate(-548.607 -179.43)" fill="#ffb7b7"/>
    <path id="Path_39" data-name="Path 39" d="M625.064,168.844l51.364-54.817L669.5,103.012,605.076,157.5Z" transform="translate(-302.247 -51.457)" fill="#3f3d56"/>
    <circle id="Ellipse_21" data-name="Ellipse 21" cx="18.017" cy="18.017" r="18.017" transform="translate(293.335 48.046)" fill="#2f2e41"/>
    <path id="Path_40" data-name="Path 40" d="M816.894,240.736a37.78,37.78,0,0,1,13.745-8.888,19.337,19.337,0,0,1,10.412-1.292c3.474.7,6.759,3.1,7.728,6.51.792,2.787-.026,5.787-1.256,8.411s-2.872,5.056-3.866,7.777a17.751,17.751,0,0,0,17.862,23.8c-3.413.458-6.559,2.061-9.895,2.915s-7.273.8-9.752-1.594c-2.623-2.529-2.676-6.64-2.549-10.281q.283-8.119.566-16.238c.1-2.76.178-5.609-.817-8.186s-3.361-4.832-6.123-4.809c-2.093.018-3.946,1.286-5.625,2.536s-3.456,2.585-5.541,2.771-4.466-1.357-4.31-3.445Z" transform="translate(-504.093 -184.851)" fill="#2f2e41"/>
    <path id="Path_41" data-name="Path 41" d="M667.99,482.149a7.333,7.333,0,0,1-5.525-13.475l15.565-17.659,13.165,2.844L672.679,472a7.294,7.294,0,0,1-4.689,10.153Z" transform="translate(-425.069 -295.108)" fill="#ffb7b7"/>
    <path id="Path_42" data-name="Path 42" d="M537.175,219.735l-38.795,48.7L486.555,263l45.6-70.991Z" transform="translate(-243.044 -95.914)" fill="#3f3d56"/>
    <path id="Path_43" data-name="Path 43" d="M516.62,541.066l-9.246-.145,1.112,31.513h8.132Z" transform="translate(-253.443 -270.201)" fill="#ffb7b7"/>
    <path id="Path_44" data-name="Path 44" d="M695.709,738.081H679.693a10.207,10.207,0,0,0-10.207,10.206v.332h26.223Z" transform="translate(-430.46 -438.503)" fill="#2f2e41"/>
    <path id="Path_45" data-name="Path 45" d="M638.084,524.511,627.984,531l20.2,24.306,6.844-4.394Z" transform="translate(-313.691 -262.004)" fill="#ffb7b7"/>
    <path id="Path_46" data-name="Path 46" d="M856.4,710.049,842.926,718.7h0a10.207,10.207,0,0,0-3.074,14.1l.179.279L862.1,718.917Z" transform="translate(-514.752 -424.5)" fill="#2f2e41"/>
    <path id="Path_47" data-name="Path 47" d="M768.312,396.306s-22.441-74.535-29.653-75.543-18.832,19.125-18.832,19.125c-15.066,19.223-30.6,81.489-30.6,81.489s25.9,1.621,44.83,11.693,41.273-.51,41.273-.51Z" transform="translate(-440.32 -230.026)" fill="#3f3d56"/>
    <path id="Path_48" data-name="Path 48" d="M768.312,396.306s-22.441-74.535-29.653-75.543-15.881,19.329-15.881,19.329c-7.507,31.03-33.553,81.285-33.553,81.285s25.9,1.621,44.83,11.693,41.273-.51,41.273-.51Z" transform="translate(-440.32 -230.027)" opacity="0.1"/>
    <path id="Path_49" data-name="Path 49" d="M560.027,282.5v37.453l4.408,54.254,22.021,41.039-10.51,7.507-30.029-39.037L534.04,344.951l-18.652,85.807-14.013-1,9.732-118.97L529.575,277.3Z" transform="translate(-250.446 -138.517)" fill="#2f2e41"/>
    <path id="Path_50" data-name="Path 50" d="M756.758,337.816c-7.007,7.007-.5,14.514-.5,14.514l-8.008,18.017,31.53,8.508L790.8,329.619l-7.507-8.008c-15.014-.5-15.022-.812-15.022-.812C765.639,323.374,756.758,337.816,756.758,337.816Z" transform="translate(-469.804 -230.063)" fill="#1396ee"/>
    <path id="Path_51" data-name="Path 51" d="M806.874,325.605a13.455,13.455,0,0,0-18.907,2.959c-7.927,11.037-15.256,28.858-5.157,51.085,16.215,35.689,30.326,53.959,36.062,53.957a2.281,2.281,0,0,0,.737-.116c3.531-1.2,8.636-7.173,9.56-12.438a6.308,6.308,0,0,0-2-6.312c-6.474-5.178-18.1-21.3-21.722-42.523-2-11.726,1.882-22.408,5.494-29.3a13.452,13.452,0,0,0-3.892-17.181h0Z" transform="translate(-484.61 -231.15)" fill="#3f3d56"/>
    <circle id="Ellipse_22" data-name="Ellipse 22" cx="13.263" cy="13.263" r="13.263" transform="translate(287.917 65.397) rotate(-28.663)" fill="#ffb7b7"/>
    <path id="Path_52" data-name="Path 52" d="M765.872,264.155h19.151l.2-2.75.982,2.75h2.949l.389-5.449,1.946,5.449h5.706v-.27a14.326,14.326,0,0,0-14.31-14.31h-2.7a14.326,14.326,0,0,0-14.31,14.31Z" transform="translate(-478.607 -194.485)" fill="#2f2e41"/>
    <path id="Path_53" data-name="Path 53" d="M815.42,276l8.173-2.652V253.5H808.156l.382.382C813.856,259.192,819.769,278.034,815.42,276Z" transform="translate(-499.728 -196.445)" fill="#2f2e41"/>
    <g id="nfc_icon" transform="translate(82 116.331)">
      <path id="nfc_icon-2" data-name="nfc_icon" d="M126.222-818.222h15.556v-15.556h-6.222a3,3,0,0,0-2.2.914,3,3,0,0,0-.914,2.2v2.022a2.972,2.972,0,0,0-1.167,1.089,3.013,3.013,0,0,0-.389,1.556,3,3,0,0,0,.914,2.2,3,3,0,0,0,2.2.914,3,3,0,0,0,2.2-.914,3,3,0,0,0,.914-2.2,2.8,2.8,0,0,0-.428-1.556,3.487,3.487,0,0,0-1.128-1.089v-2.022h3.111v9.333h-9.333v-9.333h1.556v-3.111h-4.667ZM123.111-812a3,3,0,0,1-2.2-.914,3,3,0,0,1-.914-2.2v-21.778a3,3,0,0,1,.914-2.2,3,3,0,0,1,2.2-.914h21.778a3,3,0,0,1,2.2.914,3,3,0,0,1,.914,2.2v21.778a3,3,0,0,1-.914,2.2,3,3,0,0,1-2.2.914Zm0-3.111h21.778v-21.778H123.111Zm0-21.778v0Z" transform="translate(-120 840)" fill="#fff"/>
    </g>
  </g>
</svg>
