<svg id="nfc_icon" xmlns="http://www.w3.org/2000/svg" width="56" height="56" viewBox="0 0 56 56">
  <path id="nfc_icon-2" data-name="nfc_icon" d="M132.444-796.444h31.111v-31.111H151.111a5.992,5.992,0,0,0-4.394,1.828,5.993,5.993,0,0,0-1.828,4.395v4.044a5.943,5.943,0,0,0-2.333,2.178,6.025,6.025,0,0,0-.778,3.111,5.992,5.992,0,0,0,1.828,4.395A5.991,5.991,0,0,0,148-805.778a5.991,5.991,0,0,0,4.394-1.828A5.992,5.992,0,0,0,154.222-812a5.6,5.6,0,0,0-.856-3.111,6.974,6.974,0,0,0-2.256-2.178v-4.044h6.222v18.667H138.667v-18.667h3.111v-6.222h-9.333ZM126.222-784a5.992,5.992,0,0,1-4.394-1.828A5.992,5.992,0,0,1,120-790.222v-43.556a5.992,5.992,0,0,1,1.828-4.395A5.992,5.992,0,0,1,126.222-840h43.556a5.992,5.992,0,0,1,4.394,1.828A5.992,5.992,0,0,1,176-833.778v43.556a5.992,5.992,0,0,1-1.828,4.394A5.992,5.992,0,0,1,169.778-784Zm0-6.222h43.556v-43.556H126.222Zm0-43.556v0Z" transform="translate(-120 840)" fill="#1396ee"/>
</svg>
