<svg xmlns="http://www.w3.org/2000/svg" width="489.468" height="266.695" viewBox="0 0 489.468 266.695">
  <g id="undraw_spreadsheet_re_cn18" transform="translate(0 -76.373)">
    <path id="Path_1" data-name="Path 1" d="M781.718,410H442.665a4.589,4.589,0,0,1-4.584-4.584v-210H786.3v210A4.589,4.589,0,0,1,781.718,410Z" transform="translate(-296.834 -97.807)" fill="#e6e6e6"/>
    <path id="Path_2" data-name="Path 2" d="M777.361,407.748H458.193a4.639,4.639,0,0,1-4.634-4.634V230.174a4.639,4.639,0,0,1,4.634-4.634H777.361a4.639,4.639,0,0,1,4.634,4.634v172.94a4.639,4.639,0,0,1-4.634,4.634Z" transform="translate(-302.419 -108.676)" fill="#fff"/>
    <path id="Path_3" data-name="Path 3" d="M786.069,196.922H437.849V186.2a4.589,4.589,0,0,1,4.584-4.584H781.485a4.589,4.589,0,0,1,4.584,4.584Z" transform="translate(-296.75 -92.824)" fill="#1396ee"/>
    <circle id="Ellipse_12" data-name="Ellipse 12" cx="2.738" cy="2.738" r="2.738" transform="translate(149.607 93.872)" fill="#fff"/>
    <circle id="Ellipse_13" data-name="Ellipse 13" cx="2.738" cy="2.738" r="2.738" transform="translate(159.998 93.872)" fill="#fff"/>
    <circle id="Ellipse_14" data-name="Ellipse 14" cx="2.738" cy="2.738" r="2.738" transform="translate(170.39 93.872)" fill="#fff"/>
    <rect id="Rectangle_18" data-name="Rectangle 18" width="32.895" height="14.56" transform="translate(183.942 147.875)" fill="#e6e6e6"/>
    <rect id="Rectangle_19" data-name="Rectangle 19" width="32.895" height="14.56" transform="translate(249.733 178.074)" fill="#e6e6e6"/>
    <rect id="Rectangle_20" data-name="Rectangle 20" width="32.895" height="14.56" transform="translate(183.942 223.372)" fill="#1396ee"/>
    <rect id="Rectangle_21" data-name="Rectangle 21" width="32.895" height="14.56" transform="translate(249.733 253.571)" fill="#1396ee"/>
    <rect id="Rectangle_22" data-name="Rectangle 22" width="32.895" height="14.56" transform="translate(413.671 268.671)" fill="#1396ee"/>
    <rect id="Rectangle_23" data-name="Rectangle 23" width="32.895" height="14.56" transform="translate(380.776 208.273)" fill="#e6e6e6"/>
    <rect id="Rectangle_24" data-name="Rectangle 24" width="65.791" height="14.56" transform="translate(282.629 208.273)" fill="#1396ee"/>
    <rect id="Rectangle_25" data-name="Rectangle 25" width="65.791" height="14.56" transform="translate(282.629 132.236)" fill="#1396ee"/>
    <path id="Path_4" data-name="Path 4" d="M453.414,225.122V407.935H782.369V225.122Zm327.877,15.145H749.582V226.2h31.709ZM585.643,346.278V332.213h64.5v14.066Zm64.5,1.079v14.066h-64.5V347.357Zm0-60.578v14.066h-64.5V286.779Zm-64.5-1.079V271.634h64.5V285.7Zm0,30.289V301.923h64.5v14.066Zm64.5,1.079v14.066h-64.5V317.068Zm-65.576-16.223H552.856V286.779h31.709Zm0,1.079V315.99H552.856V301.923Zm0,15.145v14.066H552.856V317.068Zm0,15.145v14.066H552.856V332.213Zm66.654,0h31.709v14.066H651.218Zm0-1.079V317.068h31.709v14.066Zm0-15.145V301.923h31.709v14.066Zm0-15.145V286.779h31.709v14.066Zm0-15.144V271.634h31.709V285.7Zm0-15.145V256.49h31.709v14.066Zm-1.078,0h-64.5V256.49h64.5Zm-65.575,0H552.856V256.49h31.709Zm0,1.079V285.7H552.856V271.634ZM551.777,285.7h-31.71V271.634h31.71Zm0,1.079v14.066h-31.71V286.779Zm0,15.144V315.99h-31.71V301.923Zm0,15.145v14.066h-31.71V317.068Zm0,15.145v14.066h-31.71V332.213Zm0,15.144v14.065h-31.71V347.357Zm1.078,0h31.709v14.065H552.856ZM584.565,362.5v14.066H552.856V362.5Zm1.079,0h64.5v14.066h-64.5Zm65.575,0h31.709v14.066H651.218Zm0-1.078V347.357h31.709v14.066Zm32.788-14.066h31.71v14.065h-31.71Zm0-1.079V332.213h31.71v14.066Zm0-15.144V317.068h31.71v14.066Zm0-15.145V301.923h31.71v14.066Zm0-15.145V286.779h31.71v14.066Zm0-15.144V271.634h31.71V285.7Zm0-15.145V256.49h31.71v14.066Zm0-15.145V241.346h31.71v14.066Zm-1.079,0H651.218V241.346h31.709Zm-32.787,0h-64.5V241.346h64.5Zm-65.575,0H552.856V241.346h31.709Zm-32.787,0h-31.71V241.346h31.71Zm0,1.079v14.066h-31.71V256.49Zm-32.788,14.066H487.28V256.49h31.709Zm0,1.079V285.7H487.28V271.634Zm0,15.145v14.066H487.28V286.779Zm0,15.144V315.99H487.28V301.923Zm0,15.145v14.066H487.28V317.068Zm0,15.145v14.066H487.28V332.213Zm0,15.144v14.065H487.28V347.357Zm0,15.145v14.066H487.28V362.5Zm1.078,0h31.71v14.066h-31.71Zm31.71,15.144v14.066h-31.71V377.645Zm1.078,0h31.709v14.066H552.856Zm32.788,0h64.5v14.066h-64.5Zm65.575,0h31.709v14.066H651.218Zm32.788,0h31.71v14.066h-31.71Zm0-1.079V362.5h31.71v14.066ZM716.794,362.5H748.5v14.066H716.794Zm0-1.079V347.357H748.5v14.066Zm0-15.145V332.213H748.5v14.066Zm0-15.144V317.068H748.5v14.066Zm0-15.145V301.923H748.5v14.066Zm0-15.145V286.779H748.5v14.066Zm0-15.144V271.634H748.5V285.7Zm0-15.145V256.49H748.5v14.066Zm0-15.145V241.346H748.5v14.066Zm0-15.144V226.2H748.5v14.066Zm-1.078,0h-31.71V226.2h31.709Zm-32.788,0H651.218V226.2h31.709Zm-32.787,0h-64.5V226.2h64.5Zm-65.575,0H552.856V226.2h31.709Zm-32.787,0h-31.71V226.2h31.71Zm-32.788,0H487.28V226.2h31.709Zm0,1.079v14.066H487.28V241.346ZM486.2,255.411H454.493V241.346H486.2Zm0,1.079v14.066H454.493V256.49Zm0,15.145V285.7H454.493V271.634Zm0,15.145v14.066H454.493V286.779Zm0,15.144v14.066H454.493V301.923Zm0,15.145v14.066H454.493V317.068Zm0,15.145v14.066H454.493V332.213Zm0,15.144v14.066H454.493V347.357Zm0,15.145v14.066H454.493V362.5Zm0,15.144v14.066H454.493V377.645Zm1.079,0h31.709v14.066H487.28Zm31.709,15.145v14.065H487.28V392.791Zm1.078,0h31.71v14.065h-31.71Zm32.788,0h31.709v14.065H552.856Zm32.788,0h64.5v14.065h-64.5Zm65.575,0h31.709v14.065H651.218Zm32.788,0h31.71v14.065h-31.71Zm32.788,0H748.5v14.065H716.794Zm0-1.079V377.645H748.5v14.067Zm32.788-14.066H781.29v14.066H749.582Zm0-1.079V362.5H781.29v14.066Zm0-15.144V347.357H781.29v14.066Zm0-15.145V332.213H781.29v14.066Zm0-15.144V317.068H781.29v14.066Zm0-15.145V301.923H781.29v14.066Zm0-15.145V286.779H781.29v14.066Zm0-15.144V271.634H781.29V285.7Zm0-15.145V256.49H781.29v14.066Zm0-15.145V241.346H781.29v14.066ZM486.2,226.2v14.066H454.493V226.2Zm-31.709,166.59H486.2v14.065H454.493Zm295.089,14.066V392.791h31.709v14.065Z" transform="translate(-302.367 -108.525)" fill="#e6e6e6"/>
    <path id="Path_5" data-name="Path 5" d="M297.428,379.515s-16.642-3.835-25.795,3.2,11.649,23.008,11.649,23.008Z" transform="translate(-235.927 -252.653)" fill="#2f2e41"/>
    <path id="Path_6" data-name="Path 6" d="M340,505.978a6.427,6.427,0,0,1,4.819-8.6l3.363-22.59,8.838,7.922-4.549,20.237A6.462,6.462,0,0,1,340,505.978Z" transform="translate(-261.287 -287.413)" fill="#ffb8b8"/>
    <path id="Path_7" data-name="Path 7" d="M67.518,508l7.818-.519,1.719-30.4-11.539.766Z" transform="translate(-23.643 -172.167)" fill="#ffb8b8"/>
    <path id="Path_8" data-name="Path 8" d="M0,0H24.626V9.515H9.515A9.515,9.515,0,0,1,0,0H0Z" transform="translate(66.965 342.404) rotate(180)" fill="#2f2e41"/>
    <path id="Path_9" data-name="Path 9" d="M89.789,492.521l7.351,2.713L111.1,468.172l-10.849-4Z" transform="translate(-32.403 -167.506)" fill="#ffb8b8"/>
    <path id="Path_10" data-name="Path 10" d="M0,0H24.626V9.515H9.515A9.515,9.515,0,0,1,0,0H0Z" transform="translate(76.394 339.785) rotate(-159.739)" fill="#2f2e41"/>
    <path id="Path_11" data-name="Path 11" d="M310.736,500.857s7.918,4.263,5.482,21.317l-2.436,64.561-13.46,29.431-11.572-3.045,7.369-23.95-9.745-42.026-1.278,76.329L274.132,625.3,258.356,498.421l20.1-9.136Z" transform="translate(-231.976 -292.643)" fill="#2f2e41"/>
    <circle id="Ellipse_15" data-name="Ellipse 15" cx="15.698" cy="15.698" r="15.698" transform="translate(34.762 88.221)" fill="#ffb8b8"/>
    <path id="Path_12" data-name="Path 12" d="M286.084,375.405l-7.918,12.79-11.572-11.572L244.96,391.767a4.092,4.092,0,0,0-1.453,4.885c3.328,8.229,11.85,32.552,9.383,60.672,0,0,16.445-4.263,33.5.609s21.317,3.045,21.317,3.045-4.263-31.062-1.827-37.762c2.021-5.557,6.137-24.106,7.482-30.27A2.778,2.778,0,0,0,312,389.93Z" transform="translate(-226.51 -251.547)" fill="#1396ee"/>
    <path id="Path_13" data-name="Path 13" d="M345.384,398.231h0a2.783,2.783,0,0,1,3.076,2.013l10.31,37.231-2.436,22.535-11.572-1.827,1.218-15.836-8.527-20.1,5.629-21.953A2.783,2.783,0,0,1,345.384,398.231Z" transform="translate(-260.52 -259.774)" fill="#1396ee"/>
    <path id="Path_14" data-name="Path 14" d="M272.078,306.617a11.189,11.189,0,0,1,10.316-5.489,21.926,21.926,0,0,1,6.235,1.745l10.262,4c2.655,1.036,5.564,2.3,6.716,4.912,1.069,2.42.272,5.214-.536,7.733L301.231,331.5a36.444,36.444,0,0,0-2.176-7.91,12.248,12.248,0,0,0-5.318-6.063c-2.666-1.367-5.807-1.339-8.8-1.2-4.238.2-8.846.743-11.857,3.732a12.315,12.315,0,0,0-3.125,6.1,36.737,36.737,0,0,0-.655,6.908,57.277,57.277,0,0,1-4.374-9.377,23.2,23.2,0,0,1-1.625-7.59,10.675,10.675,0,0,1,2.447-7.22,7,7,0,0,1,7.043-2.217" transform="translate(-233.758 -224.735)" fill="#2f2e41"/>
    <path id="Path_15" data-name="Path 15" d="M253.769,519.978a6.427,6.427,0,0,0-4.819-8.6l-3.363-22.59-8.838,7.922,4.549,20.237a6.462,6.462,0,0,0,12.471,3.027Z" transform="translate(-224.178 -292.465)" fill="#ffb8b8"/>
    <path id="Path_16" data-name="Path 16" d="M242.394,400.638h0a4.1,4.1,0,0,0-3.42,3.838l-3.49,69.792h12.79l4.263-37.153-5.426-33.1a4.1,4.1,0,0,0-4.719-3.38Z" transform="translate(-223.722 -260.632)" fill="#1396ee"/>
    <path id="Path_17" data-name="Path 17" d="M109.762,536.017H0v-1.346H110.006Z" transform="translate(0 -192.949)" fill="#ccc"/>
  </g>
</svg>
