<svg id="Logo" xmlns="http://www.w3.org/2000/svg" xmlns:xlink="http://www.w3.org/1999/xlink" width="172.846" height="28.333" viewBox="0 0 172.846 28.333">
  <defs>
    <clipPath id="clip-path">
      <rect id="Rectangle_14" data-name="Rectangle 14" width="172.846" height="28.333" fill="none"/>
    </clipPath>
  </defs>
  <path id="Path_1" data-name="Path 1" d="M0,0V4.08H6.459V21.92h5.284V4.08h6.579V0Z" transform="translate(0 0)" fill="#fff"/>
  <g id="Group_18" data-name="Group 18">
    <g id="Group_17" data-name="Group 17" clip-path="url(#clip-path)">
      <path id="Path_2" data-name="Path 2" d="M276.288,103.016a5.724,5.724,0,0,1-.482-1.46,4.718,4.718,0,0,1-3.914,1.761,5.779,5.779,0,0,1-3.914-1.393,4.432,4.432,0,0,1-1.611-3.5,4.555,4.555,0,0,1,1.957-4,9.97,9.97,0,0,1,5.691-1.355h1.566V92.2q0-2.254-1.942-2.254a1.587,1.587,0,0,0-1.807,1.785h-5.073a4.548,4.548,0,0,1,2.01-3.834,8.447,8.447,0,0,1,5.126-1.474,7.406,7.406,0,0,1,4.923,1.521,5.287,5.287,0,0,1,1.852,4.17v7.211a7.381,7.381,0,0,0,.692,3.433v.256ZM273.112,99.7a2.83,2.83,0,0,0,1.573-.407,2.548,2.548,0,0,0,.9-.918v-2.6h-1.475q-2.65,0-2.65,2.379a1.452,1.452,0,0,0,.467,1.122,1.689,1.689,0,0,0,1.189.429" transform="translate(-249.942 -81.097)" fill="#fff"/>
      <path id="Path_3" data-name="Path 3" d="M549.528,94.992a9.824,9.824,0,0,1-1.709,6.06,5.478,5.478,0,0,1-4.614,2.266,4.7,4.7,0,0,1-3.688-1.641v7.6h-5.073V86.727h4.742l.151,1.505a4.7,4.7,0,0,1,3.839-1.807,5.523,5.523,0,0,1,4.682,2.221,9.945,9.945,0,0,1,1.671,6.1Zm-5.073-.316q0-4.336-2.529-4.336a2.388,2.388,0,0,0-2.409,1.295v6.413a2.465,2.465,0,0,0,2.439,1.355q2.424,0,2.5-4.185Z" transform="translate(-501.487 -81.097)" fill="#fff"/>
      <path id="Path_4" data-name="Path 4" d="M1086.006,0l4.893,15.251L1095.777,0h6.955V21.92h-5.3V16.8l.512-10.478-5.3,15.6h-3.493l-5.314-15.612.512,10.493V21.92h-5.284V0Z" transform="translate(-1012.526 0)" fill="#fff"/>
      <path id="Path_5" data-name="Path 5" d="M1501.351,103.016a5.722,5.722,0,0,1-.482-1.46,4.718,4.718,0,0,1-3.914,1.761,5.779,5.779,0,0,1-3.914-1.393,4.432,4.432,0,0,1-1.611-3.5,4.555,4.555,0,0,1,1.957-4,9.97,9.97,0,0,1,5.691-1.355h1.566V92.2q0-2.254-1.942-2.254a1.587,1.587,0,0,0-1.807,1.785h-5.073a4.548,4.548,0,0,1,2.01-3.834,8.448,8.448,0,0,1,5.126-1.474,7.406,7.406,0,0,1,4.923,1.521,5.287,5.287,0,0,1,1.852,4.17v7.211a7.383,7.383,0,0,0,.693,3.433v.256Zm-3.177-3.312a2.83,2.83,0,0,0,1.573-.407,2.548,2.548,0,0,0,.9-.918v-2.6h-1.475q-2.65,0-2.65,2.379a1.452,1.452,0,0,0,.467,1.122,1.689,1.689,0,0,0,1.189.429" transform="translate(-1399.462 -81.097)" fill="#fff"/>
      <path id="Path_6" data-name="Path 6" d="M1762.066,86.727l.166,1.912a5.524,5.524,0,0,1,4.652-2.213,4.648,4.648,0,0,1,3.8,1.521,7.242,7.242,0,0,1,1.3,4.577v10.493H1766.9V92.734a2.75,2.75,0,0,0-.5-1.814,2.3,2.3,0,0,0-1.807-.58,2.42,2.42,0,0,0-2.213,1.174v11.5h-5.073V86.727Z" transform="translate(-1648.945 -81.097)" fill="#fff"/>
      <path id="Path_7" data-name="Path 7" d="M2028.714,103.016a5.711,5.711,0,0,1-.482-1.46,4.717,4.717,0,0,1-3.914,1.761,5.779,5.779,0,0,1-3.914-1.393,4.431,4.431,0,0,1-1.611-3.5,4.555,4.555,0,0,1,1.957-4,9.97,9.97,0,0,1,5.691-1.355h1.566V92.2q0-2.254-1.942-2.254a1.587,1.587,0,0,0-1.807,1.785h-5.073a4.548,4.548,0,0,1,2.01-3.834,8.448,8.448,0,0,1,5.126-1.474,7.406,7.406,0,0,1,4.923,1.521,5.288,5.288,0,0,1,1.852,4.17v7.211a7.38,7.38,0,0,0,.693,3.433v.256Zm-3.177-3.312a2.831,2.831,0,0,0,1.573-.407,2.548,2.548,0,0,0,.9-.918v-2.6h-1.475q-2.65,0-2.649,2.379a1.452,1.452,0,0,0,.467,1.122,1.688,1.688,0,0,0,1.189.429" transform="translate(-1894.305 -81.097)" fill="#fff"/>
      <path id="Path_8" data-name="Path 8" d="M2276.615,94.751a10.994,10.994,0,0,1,.813-4.366,6.545,6.545,0,0,1,2.334-2.928,6.152,6.152,0,0,1,3.538-1.031,4.891,4.891,0,0,1,3.974,1.716l.181-1.415h4.607V102.4a6.868,6.868,0,0,1-1,3.741,6.423,6.423,0,0,1-2.9,2.439,10.654,10.654,0,0,1-4.4.851,9.186,9.186,0,0,1-3.47-.677,6.258,6.258,0,0,1-2.567-1.761l2.122-2.981a4.652,4.652,0,0,0,3.734,1.671q3.372,0,3.373-3.463v-.512a4.764,4.764,0,0,1-3.689,1.611,5.887,5.887,0,0,1-4.817-2.281,9.447,9.447,0,0,1-1.837-6.1Zm5.089.316a5.791,5.791,0,0,0,.753,3.169,2.374,2.374,0,0,0,2.107,1.167,2.7,2.7,0,0,0,2.394-1.1v-6.85a2.628,2.628,0,0,0-2.364-1.114,2.391,2.391,0,0,0-2.123,1.212,6.61,6.61,0,0,0-.768,3.515" transform="translate(-2136.229 -81.097)" fill="#fff"/>
      <path id="Path_9" data-name="Path 9" d="M2564.063,103.318a8.372,8.372,0,0,1-6.067-2.236,7.719,7.719,0,0,1-2.318-5.819v-.422a10,10,0,0,1,.926-4.411,6.777,6.777,0,0,1,2.7-2.958,8.158,8.158,0,0,1,4.215-1.046,7.051,7.051,0,0,1,5.42,2.13,8.372,8.372,0,0,1,1.987,5.939v1.972h-10.087a3.658,3.658,0,0,0,1.189,2.153,3.54,3.54,0,0,0,2.379.783,4.559,4.559,0,0,0,3.763-1.686l2.319,2.74a6.481,6.481,0,0,1-2.687,2.085,9.082,9.082,0,0,1-3.741.775m-.572-12.977q-2.228,0-2.649,2.951h5.119V92.9a2.513,2.513,0,0,0-.617-1.889,2.458,2.458,0,0,0-1.852-.67" transform="translate(-2398.082 -81.097)" fill="#fff"/>
      <path id="Path_10" data-name="Path 10" d="M823.713,99.352a7.229,7.229,0,1,1-7.229-7.229,7.229,7.229,0,0,1,7.229,7.229" transform="translate(-759.353 -86.442)" fill="#1396ee"/>
      <path id="Path_11" data-name="Path 11" d="M879.4,151.958a1.72,1.72,0,0,1,.291-.963,4.043,4.043,0,0,1,1.069-.984,5.234,5.234,0,0,1-.525-.842,1.863,1.863,0,0,1-.191-.821,1.917,1.917,0,0,1,.554-1.424,2.025,2.025,0,0,1,1.491-.548,1.945,1.945,0,0,1,1.378.5,1.63,1.63,0,0,1,.538,1.246,1.965,1.965,0,0,1-.906,1.581l-.577.417,1.293,1.5a2.866,2.866,0,0,0,.3-1.318h1.267a3.868,3.868,0,0,1-.675,2.369l1.123,1.3h-1.689l-.386-.443a3.386,3.386,0,0,1-1.906.546,2.613,2.613,0,0,1-1.782-.584,1.942,1.942,0,0,1-.669-1.537m2.523.922a1.889,1.889,0,0,0,1.014-.3l-1.478-1.705-.108.077a1.175,1.175,0,0,0-.458.919.972.972,0,0,0,.286.727,1.018,1.018,0,0,0,.744.28m-.546-4.552a1.757,1.757,0,0,0,.453.973l.4-.263a1.346,1.346,0,0,0,.42-.381.818.818,0,0,0,.116-.443.613.613,0,0,0-.191-.448.662.662,0,0,0-.489-.191.669.669,0,0,0-.512.206.766.766,0,0,0-.193.546" transform="translate(-825.176 -137.35)" fill="#fff"/>
    </g>
  </g>
</svg>
